Coordinates
version=1
nRows=14
nColumns=24
inDegrees=yes

Units are S.I. units (second, meters, Newtons, ...)
Angles are in degrees.

endheader
time	pelvis_tilt	pelvis_list	pelvis_rotation	pelvis_tx	pelvis_ty	pelvis_tz	hip_flexion_r	hip_adduction_r	hip_rotation_r	knee_angle_r	ankle_angle_r	subtalar_angle_r	mtp_angle_r	hip_flexion_l	hip_adduction_l	hip_rotation_l	knee_angle_l	ankle_angle_l	subtalar_angle_l	mtp_angle_l	lumbar_extension	lumbar_bending	lumbar_rotation
      0.47900000	      8.24548422	      1.87688165	     -4.08703442	     -0.88461964	      0.99773765	      0.28465951	     12.76530761	     -1.86176471	     -3.14000344	      4.11357223	     -0.94297390	     -4.17615979	      4.29003931	    -29.67932504	      6.66922504	      8.32278367	      3.01449041	      9.81197893	    -15.55177997	     -7.08375276	    -21.16517462	      6.26237270	     -8.02124703
      0.48316667	      8.21589446	      1.78347004	     -4.04003603	     -0.87908136	      0.99683581	      0.28501802	     12.74900085	     -1.72882544	     -2.76047770	      4.09379192	     -1.25280234	     -4.40302926	      4.31508610	    -29.79789987	      6.56143023	      8.23790148	      2.58676448	     10.10861716	    -15.31489008	     -7.04663975	    -21.14329606	      6.41425715	     -8.05575492
      0.48733333	      8.17485242	      1.65965060	     -3.96915946	     -0.87349607	      0.99598439	      0.28535577	     12.74251900	     -1.56967626	     -2.40142733	      3.99028304	     -1.58726653	     -4.64034974	      4.33784497	    -29.89762253	      6.41123799	      8.19470586	      2.13433483	     10.42372790	    -15.06975828	     -7.00679926	    -21.10011925	      6.61887184	     -8.04586623
      0.49150000	      8.13873751	      1.53013839	     -3.93730826	     -0.86789898	      0.99518358	      0.28574843	     12.75514033	     -1.39724851	     -1.96588690	      3.77790078	     -2.00499612	     -5.01926071	      4.37318389	    -29.96407259	      6.27929703	      8.00693101	      1.61017991	     10.74954993	    -14.71090743	     -6.94115134	    -21.08186559	      6.79992320	     -8.05759962
      0.49566667	      8.10271717	      1.37358442	     -3.88777180	     -0.86226358	      0.99444627	      0.28613043	     12.76934212	     -1.19991964	     -1.57059235	      3.49000609	     -2.44580276	     -5.37460707	      4.41123231	    -30.02676735	      6.11157113	      7.87622100	      1.07234824	     11.04998206	    -14.41190961	     -6.86483841	    -21.05619275	      7.02557349	     -8.03276924
      0.49983333	      8.06483842	      1.19646475	     -3.83965141	     -0.85659369	      0.99375675	      0.28653342	     12.78732052	     -0.97878952	     -1.15695205	      3.13877602	     -2.93336834	     -5.79732203	      4.45340814	    -30.07116091	      5.92537595	      7.72269382	      0.49452772	     11.34282469	    -14.09445330	     -6.77404837	    -21.03269395	      7.27342929	     -8.00997073
      0.50400000	      8.01490615	      0.99557548	     -3.79738388	     -0.85085693	      0.99310328	      0.28695266	     12.82602027	     -0.72922621	     -0.75587278	      2.71606556	     -3.46298300	     -6.25130186	      4.49816016	    -30.09006115	      5.72009360	      7.53346763	     -0.11976731	     11.62962265	    -13.76408565	     -6.66568261	    -20.99228418	      7.54610675	     -7.96609166
      0.50816667	      7.97628067	      0.78602106	     -3.75839157	     -0.84511740	      0.99251641	      0.28738776	     12.86887830	     -0.46872435	     -0.37493918	      2.21750614	     -4.00925237	     -6.72744336	      4.54460606	    -30.10002935	      5.50990741	      7.33530666	     -0.77350387	     11.89230567	    -13.44713017	     -6.53955258	    -20.96102555	      7.82985418	     -7.91844425
      0.51233333	      7.93807278	      0.55150887	     -3.72578494	     -0.83932924	      0.99197566	      0.28785242	     12.91530162	     -0.17781949	     -0.00336678	      1.67065563	     -4.58587721	     -7.23713884	      4.59202863	    -30.09661622	      5.27814284	      7.09820789	     -1.45699249	     12.14640860	    -13.10498227	     -6.38600128	    -20.93018921	      8.14059248	     -7.84618622
      0.51650000	      7.88210023	      0.31031608	     -3.69420021	     -0.83351913	      0.99146656	      0.28834714	     12.99637310	      0.12520107	      0.34658303	      1.05700196	     -5.13833723	     -7.75032182	      4.64604818	    -30.05041397	      5.03988822	      6.84815845	     -2.19348843	     12.37482495	    -12.77169769	     -6.18537543	    -20.89122505	      8.45344948	     -7.77666111
      0.52066667	      7.81615014	      0.05085886	     -3.66705954	     -0.82766243	      0.99098019	      0.28885322	     13.10419084	      0.45091129	      0.64869029	      0.38340804	     -5.73355069	     -8.27578333	      4.68536180	    -29.99778165	      4.78576126	      6.60155712	     -2.92815844	     12.56096114	    -12.45457005	     -5.99022049	    -20.82305305	      8.79024886	     -7.69122243
      0.52483333	      7.74774758	     -0.22077146	     -3.65301834	     -0.82176159	      0.99054019	      0.28940017	     13.22655951	      0.79472892	      0.92984400	     -0.34331384	     -6.28299297	     -8.78287694	      4.71640784	    -29.92668297	      4.52618040	      6.33752671	     -3.69086703	     12.69908182	    -12.16620192	     -5.78459975	    -20.74826783	      9.14335448	     -7.58803888
      0.52900000	      7.68170988	     -0.50093527	     -3.63863511	     -0.81587728	      0.99014350	      0.28997517	     13.35777473	      1.15093940	      1.19501162	     -1.11032731	     -6.80705934	     -9.32222320	      4.74523896	    -29.83115215	      4.25704633	      6.03812719	     -4.50870314	     12.83482064	    -11.84158484	     -5.52614320	    -20.69994550	      9.48758494	     -7.48336191
      0.53316667	      7.60602369	     -0.79034204	     -3.63483134	     -0.80993390	      0.98977459	      0.29058020	     13.51280866	      1.52147992	      1.42090162	     -1.92760468	     -7.27249800	     -9.81556811	      4.76569132	    -29.71621274	      3.98411927	      5.73194675	     -5.34815865	     12.91100520	    -11.56206324	     -5.24242570	    -20.61935382	      9.85351597	     -7.36565176
